<svg xmlns="http://www.w3.org/2000/svg" xmlns:xlink="http://www.w3.org/1999/xlink" width="500" zoomAndPan="magnify" viewBox="0 0 375 374.999991" height="500" preserveAspectRatio="xMidYMid meet" version="1.0"><defs><clipPath id="id1"><path d="M 38.425781 155 L 96 155 L 96 243 L 38.425781 243 Z M 38.425781 155 " clip-rule="nonzero"/></clipPath><clipPath id="id2"><path d="M 279 155 L 336.925781 155 L 336.925781 243 L 279 243 Z M 279 155 " clip-rule="nonzero"/></clipPath></defs><g clip-path="url(#id1)"><path fill="#f32053" d="M 95.78125 155.695312 L 95.78125 172.457031 L 51.417969 198.710938 L 95.78125 226.226562 L 95.78125 242.042969 L 38.425781 206.617188 L 38.425781 191.75 Z M 95.78125 155.695312 " fill-opacity="1" fill-rule="nonzero"/></g><g clip-path="url(#id2)"><path fill="#ffffff" d="M 279.253906 242.042969 L 279.253906 225.277344 L 323.613281 199.027344 L 279.253906 171.507812 L 279.253906 155.695312 L 336.605469 191.117188 L 336.605469 205.984375 Z M 279.253906 242.042969 " fill-opacity="1" fill-rule="nonzero"/></g><path fill="#a8ecf0" d="M 224.117188 202.117188 L 224.117188 215.15625 L 231.722656 215.15625 L 248.941406 186.5 L 248.941406 223.378906 L 262.140625 223.378906 L 262.140625 157.59375 L 248.941406 157.59375 Z M 224.117188 202.117188 " fill-opacity="1" fill-rule="nonzero"/><path fill="#407bff" d="M 184.824219 243.621094 L 184.824219 157.59375 L 199.519531 157.59375 L 224.117188 201.425781 L 224.117188 215.164062 L 215.492188 215.164062 L 199.199219 188.011719 L 199.199219 243.621094 Z M 184.824219 243.621094 " fill-opacity="1" fill-rule="nonzero"/><path fill="#a8ecf0" d="M 192.429688 150 C 197.679688 150 201.933594 145.753906 201.933594 140.511719 C 201.933594 135.273438 197.679688 131.023438 192.429688 131.023438 C 187.179688 131.023438 182.921875 135.273438 182.921875 140.511719 C 182.921875 145.753906 187.179688 150 192.429688 150 Z M 192.429688 150 " fill-opacity="1" fill-rule="nonzero"/><path fill="#407bff" d="M 253.902344 150 C 259.152344 150 263.410156 145.753906 263.410156 140.511719 C 263.410156 135.273438 259.152344 131.023438 253.902344 131.023438 C 248.652344 131.023438 244.394531 135.273438 244.394531 140.511719 C 244.394531 145.753906 248.652344 150 253.902344 150 Z M 253.902344 150 " fill-opacity="1" fill-rule="nonzero"/><path fill="#ffffff" d="M 140.582031 156.707031 L 113.007812 156.707031 C 112.476562 156.707031 111.941406 157.238281 111.941406 157.664062 L 111.941406 172.328125 L 140.582031 172.328125 C 142.5 172.328125 153.148438 172.859375 153.148438 182.210938 C 153.148438 191.5625 142.710938 191.777344 140.582031 191.777344 L 111.941406 191.777344 L 111.941406 240.769531 C 111.941406 241.195312 112.476562 241.726562 113.007812 241.726562 L 126.847656 241.726562 C 127.59375 241.726562 127.914062 241.195312 127.914062 240.769531 L 127.914062 207.503906 L 140.582031 207.503906 C 142.605469 207.503906 169.328125 207.1875 169.328125 182.210938 C 169.328125 157.238281 143.988281 156.707031 140.582031 156.707031 Z M 140.582031 156.707031 " fill-opacity="1" fill-rule="nonzero"/></svg>